<?xml version="1.0" standalone="no"?>
<!DOCTYPE svg PUBLIC "-//W3C//DTD SVG 20010904//EN"
 "http://www.w3.org/TR/2001/REC-SVG-20010904/DTD/svg10.dtd">
<svg version="1.0" xmlns="http://www.w3.org/2000/svg"
 width="474.000000pt" height="474.000000pt" viewBox="0 0 474.000000 474.000000"
 preserveAspectRatio="xMidYMid meet">

<g transform="translate(0.000000,474.000000) scale(0.100000,-0.100000)"
fill="#ffffff" stroke="none">
<path d="M2125 4230 c-208 -32 -383 -85 -560 -169 -582 -278 -970 -817 -1056
-1465 -18 -137 -7 -445 20 -581 153 -759 728 -1332 1491 -1487 102 -20 143
-23 355 -23 222 1 249 3 366 27 789 169 1371 787 1485 1578 24 171 15 471 -20
635 -36 170 -77 289 -156 450 -187 382 -480 674 -865 860 -152 74 -274 116
-440 151 -104 23 -150 26 -340 29 -121 2 -247 0 -280 -5z m316 -1470 c78 -15
149 -53 208 -111 156 -157 155 -403 -2 -558 -231 -228 -610 -103 -668 221 -41
225 145 447 382 457 15 1 51 -4 80 -9z m-642 -541 c37 -143 159 -298 288 -367
79 -42 198 -72 283 -72 85 0 204 30 283 72 129 69 251 224 288 367 l13 51 548
0 548 0 -5 -37 c-19 -144 -29 -199 -50 -284 -139 -554 -589 -1022 -1140 -1187
-181 -54 -269 -66 -485 -66 -184 0 -218 3 -331 27 -475 101 -875 386 -1116
795 -125 213 -195 428 -227 700 l-7 52 549 0 548 0 13 -51z"/>
<path d="M2323 2560 c-43 -10 -96 -51 -124 -96 -27 -44 -30 -134 -6 -180 43
-83 137 -123 228 -100 138 36 188 204 93 314 -45 53 -124 79 -191 62z"/>
</g>
</svg>
